<?xml version="1.0" standalone="no"?>
<!DOCTYPE svg PUBLIC "-//W3C//DTD SVG 20010904//EN"
 "http://www.w3.org/TR/2001/REC-SVG-20010904/DTD/svg10.dtd">
<svg version="1.0" xmlns="http://www.w3.org/2000/svg"
 width="1024.000000pt" height="1024.000000pt" viewBox="0 0 1024.000000 1024.000000"
 preserveAspectRatio="xMidYMid meet">

<g transform="translate(0.000000,1024.000000) scale(0.100000,-0.100000)"
fill="#000000" stroke="none">
<path d="M3520 9401 c0 -8 -134 -91 -146 -91 -4 0 -77 -44 -130 -78 -10 -6
-26 -15 -34 -19 -23 -11 -225 -147 -324 -218 -234 -171 -540 -455 -752 -700
-151 -174 -349 -452 -485 -680 -68 -115 -198 -374 -244 -485 -15 -36 -35 -83
-44 -105 -10 -22 -24 -56 -30 -75 -7 -19 -17 -44 -22 -55 -10 -23 -71 -210
-88 -270 -78 -278 -118 -480 -151 -775 -6 -52 -15 -126 -19 -165 -12 -97 -11
-549 0 -665 31 -319 67 -573 99 -700 5 -19 14 -57 20 -85 7 -27 18 -70 25 -95
7 -25 18 -65 25 -90 24 -84 112 -345 132 -390 11 -25 24 -54 28 -65 5 -11 20
-46 34 -78 14 -32 26 -60 26 -63 0 -11 151 -306 192 -374 12 -19 26 -44 32
-55 47 -83 182 -281 286 -420 314 -418 734 -812 1146 -1076 55 -35 109 -70
120 -77 10 -6 26 -15 34 -19 8 -3 26 -14 40 -23 69 -48 431 -230 535 -270 11
-4 31 -12 45 -18 14 -5 57 -22 95 -37 39 -15 79 -31 90 -35 66 -27 309 -101
405 -124 257 -62 416 -89 715 -124 33 -4 213 -7 400 -6 380 1 486 10 870 73
48 8 247 54 310 72 175 48 396 121 470 154 17 7 41 17 55 23 14 5 48 20 75 32
28 12 66 29 85 37 305 134 774 425 1005 624 295 255 461 424 703 717 63 77 69
117 23 162 -47 48 -95 49 -151 4 -8 -7 -40 -26 -70 -42 -30 -16 -90 -48 -133
-71 -43 -24 -84 -40 -92 -37 -13 5 -15 139 -15 1002 l0 996 59 58 c38 37 71
82 92 126 29 60 33 79 33 144 0 120 -41 185 -146 234 l-38 17 0 414 0 415 28
17 c84 52 112 108 112 220 -1 64 -5 88 -28 133 -22 45 -36 60 -80 84 -51 27
-54 30 -47 60 3 17 9 64 12 105 10 140 -36 220 -207 361 -148 122 -206 205
-285 408 -18 48 -37 88 -42 89 -4 2 -16 -23 -26 -55 -11 -31 -44 -109 -75
-172 -49 -102 -65 -125 -141 -200 -47 -47 -110 -105 -140 -129 -29 -24 -68
-67 -85 -95 -55 -87 -64 -161 -40 -307 6 -35 4 -37 -38 -58 -79 -39 -127 -145
-115 -256 9 -87 44 -144 113 -185 l32 -18 -2 -409 c0 -224 -5 -414 -9 -420 -5
-7 -15 -13 -23 -13 -33 0 -98 -50 -122 -95 -77 -143 -41 -291 103 -429 l54
-51 1 -566 c0 -605 1 -600 -47 -585 -22 7 -222 35 -313 44 l-65 7 -7 76 c-10
107 -45 169 -123 214 -16 10 -16 16 -6 60 26 106 32 174 27 275 -7 146 -39
237 -121 355 -48 68 -200 219 -289 285 -33 25 -78 59 -100 76 -23 17 -120 84
-216 148 -218 147 -222 150 -345 271 -66 65 -117 126 -146 175 -45 76 -108
219 -130 298 -7 23 -15 42 -18 42 -3 0 -16 -31 -28 -69 -43 -134 -136 -307
-214 -396 -19 -21 -73 -70 -120 -109 -94 -77 -95 -78 -219 -162 -436 -293
-627 -462 -727 -644 -83 -150 -96 -349 -34 -549 9 -30 8 -35 -16 -55 -88 -71
-112 -118 -116 -231 l-2 -60 -70 -6 c-38 -4 -88 -9 -110 -13 l-40 -6 -111 122
c-62 68 -140 157 -174 198 -84 101 -300 392 -300 405 0 3 -16 27 -35 54 -19
26 -35 51 -35 55 0 3 -16 30 -35 60 -19 30 -35 57 -35 60 0 2 -19 37 -43 78
-69 116 -202 397 -253 536 -77 205 -168 499 -193 623 -5 24 -16 78 -24 119
-24 112 -64 380 -76 505 -26 267 -10 764 34 1055 25 161 90 459 125 575 56
182 128 383 142 400 4 5 8 15 8 22 0 21 131 297 201 423 56 101 189 301 289
435 45 61 86 118 91 127 19 36 -5 88 -65 136 -18 14 -56 16 -56 3z m-460 -587
c0 -4 -16 -33 -35 -65 -98 -161 -261 -556 -330 -799 -67 -239 -94 -355 -125
-550 -48 -304 -60 -456 -60 -780 0 -363 21 -579 90 -955 33 -177 127 -508 195
-685 36 -94 78 -197 102 -250 14 -30 32 -73 41 -95 18 -46 106 -217 163 -317
21 -39 39 -71 39 -73 0 -7 116 -195 172 -278 256 -382 596 -753 978 -1067 237
-195 583 -414 885 -560 460 -222 874 -340 1445 -412 139 -17 678 -17 820 0
415 52 548 80 869 188 90 30 166 53 169 50 6 -6 -6 -17 -134 -127 -169 -145
-384 -299 -586 -421 -98 -59 -378 -204 -463 -240 -492 -207 -941 -317 -1430
-349 -205 -14 -601 -6 -768 16 -516 65 -948 193 -1390 409 -786 386 -1431 987
-1864 1736 -158 274 -298 596 -388 893 -114 382 -185 859 -185 1259 0 130 23
457 40 563 5 33 17 105 25 160 110 690 421 1384 873 1949 228 285 416 470 782
768 41 34 70 47 70 32z m5179 -1956 c31 -29 90 -79 131 -111 100 -76 124 -112
115 -169 -4 -23 -16 -61 -26 -85 l-18 -43 -260 0 c-197 0 -262 3 -268 13 -15
24 -43 112 -43 137 0 36 46 88 161 181 55 44 107 91 115 105 9 13 21 24 27 24
5 0 35 -24 66 -52z m360 -644 c25 -5 31 -11 29 -28 l-3 -21 -450 0 c-421 0
-450 1 -453 18 -2 11 5 21 20 26 26 11 807 15 857 5z m-302 -234 l183 0 0
-431 c0 -405 -1 -430 -17 -427 -16 3 -19 24 -23 228 -7 254 -13 281 -92 359
-104 105 -215 107 -328 5 -83 -75 -84 -80 -90 -346 -3 -130 -8 -240 -12 -244
-4 -4 -14 -1 -23 6 -13 11 -15 68 -15 430 0 325 3 420 13 424 6 3 59 4 116 1
57 -3 187 -5 288 -5z m-90 -418 c25 -16 32 -66 33 -234 1 -95 1 -179 1 -185
-1 -9 -20 -13 -62 -13 l-60 0 3 199 c3 179 5 201 22 220 20 22 42 26 63 13z
m-2418 -427 c62 -92 259 -255 481 -400 58 -37 164 -112 237 -166 294 -218 395
-357 396 -539 0 -71 -26 -195 -44 -206 -4 -2 -59 9 -121 25 -149 38 -266 59
-493 88 -111 14 -215 17 -505 17 -360 0 -479 -8 -675 -44 -27 -5 -88 -16 -135
-25 -47 -9 -128 -27 -180 -40 -52 -13 -98 -21 -102 -17 -15 15 -38 147 -38
215 0 79 26 156 77 230 66 96 245 252 458 400 348 241 392 275 500 383 60 61
112 112 115 113 3 0 16 -15 29 -34z m2879 -273 c5 -35 -31 -84 -113 -151 l-75
-62 -2 -1111 -3 -1110 -80 -28 c-44 -15 -98 -35 -119 -44 -22 -9 -40 -15 -42
-13 -1 1 -4 208 -6 460 -3 386 -6 459 -18 470 -16 15 -173 60 -250 72 -88 14
-80 -54 -80 661 l0 636 -28 26 c-16 15 -55 49 -86 76 -60 51 -93 103 -83 130
6 15 55 16 494 14 l488 -3 3 -23z m-2617 -1142 c305 -22 560 -70 816 -152 138
-44 134 -39 140 -198 2 -74 7 -138 11 -141 4 -4 77 -12 162 -18 299 -23 777
-94 802 -119 5 -5 7 -192 6 -417 l-3 -409 -30 -7 c-325 -69 -432 -85 -701
-101 -152 -9 -240 -9 -410 0 -200 12 -363 27 -390 36 -8 3 -13 104 -18 318 -5
203 -12 318 -19 326 -26 32 -639 482 -656 482 -5 0 -79 -50 -163 -111 -369
-269 -488 -360 -498 -380 -6 -10 -10 -52 -10 -93 0 -42 -3 -76 -6 -76 -18 0
-337 200 -444 279 -41 30 -130 98 -197 152 -134 107 -139 119 -42 119 32 0 69
4 83 10 l26 10 0 135 0 135 38 23 c136 86 505 164 947 200 95 8 432 6 556 -3z
m-77 -837 c116 -86 214 -161 218 -167 4 -6 8 -116 8 -243 0 -182 -3 -233 -13
-233 -29 0 -262 63 -392 106 -77 26 -212 77 -300 113 l-160 66 -3 100 -3 100
113 82 c62 45 149 108 193 139 44 30 89 64 100 75 11 10 21 19 23 19 3 0 99
-70 216 -157z"/>
<path d="M4950 8791 c-132 -35 -180 -52 -272 -97 -266 -131 -520 -377 -637
-619 -69 -145 -109 -265 -143 -435 -16 -84 -16 -394 1 -480 17 -90 41 -191 51
-215 4 -11 25 -63 46 -115 48 -120 72 -163 150 -275 60 -87 221 -254 314 -326
241 -189 623 -310 929 -296 360 17 671 147 929 391 89 85 202 222 202 245 0
15 -8 14 -75 -13 -375 -151 -811 -119 -1133 81 -29 18 -55 33 -58 33 -4 0 -34
22 -68 49 -307 247 -465 574 -466 964 0 317 120 612 344 845 78 81 236 198
333 246 35 17 63 34 63 39 0 4 -91 7 -202 6 -188 -1 -211 -3 -308 -28z m-246
-382 c-123 -182 -205 -482 -204 -749 1 -277 80 -538 236 -778 77 -119 267
-307 399 -394 182 -120 402 -207 574 -227 30 -3 56 -11 58 -17 4 -11 -119 -54
-217 -76 -31 -7 -123 -12 -210 -12 -217 1 -343 30 -545 129 -243 119 -441 316
-564 561 -234 467 -147 1044 212 1412 95 97 287 236 295 213 1 -4 -14 -32 -34
-62z"/>
<path d="M5841 8173 c-20 -56 -109 -233 -135 -268 -53 -69 -164 -156 -246
-192 -14 -6 -50 -22 -80 -36 -30 -13 -63 -28 -73 -31 -25 -8 -17 -28 14 -37
14 -3 83 -35 152 -69 128 -64 176 -101 226 -175 24 -35 105 -197 141 -280 9
-21 14 -25 17 -15 6 17 87 181 124 250 36 67 135 161 209 198 36 19 81 42 100
52 19 10 54 27 78 36 46 19 50 34 11 44 -36 10 -213 100 -217 111 -2 5 -9 9
-17 9 -7 0 -42 32 -79 70 -53 56 -78 95 -126 194 -33 68 -60 128 -60 133 0 5
-6 17 -13 27 -11 15 -14 13 -26 -21z m86 -472 l71 -69 -69 -70 -69 -71 -69 69
-70 69 67 69 c37 38 68 70 68 71 1 0 33 -30 71 -68z"/>
</g>
</svg>
